<?xml version="1.0" encoding="utf-8"?>
<!-- Generator: Adobe Illustrator 22.1.0, SVG Export Plug-In . SVG Version: 6.00 Build 0)  -->
<svg version="1.1"
	 id="svg2" inkscape:version="0.91 r13725" sodipodi:docname="seamless pattern 02.svg" xmlns:cc="http://creativecommons.org/ns#" xmlns:dc="http://purl.org/dc/elements/1.1/" xmlns:inkscape="http://www.inkscape.org/namespaces/inkscape" xmlns:rdf="http://www.w3.org/1999/02/22-rdf-syntax-ns#" xmlns:sodipodi="http://sodipodi.sourceforge.net/DTD/sodipodi-0.dtd" xmlns:svg="http://www.w3.org/2000/svg"
	 xmlns="http://www.w3.org/2000/svg" xmlns:xlink="http://www.w3.org/1999/xlink" x="0px" y="0px" viewBox="0 0 600 600"
	 style="enable-background:new 0 0 600 600;" xml:space="preserve">
<style type="text/css">
	.st0{fill:#E8E8E8;}
</style>
<sodipodi:namedview  bordercolor="#666666" borderopacity="1" gridtolerance="10" guidetolerance="10" id="namedview4" inkscape:current-layer="svg2" inkscape:cx="277.46563" inkscape:cy="262.45159" inkscape:pageopacity="0" inkscape:pageshadow="2" inkscape:window-height="872" inkscape:window-maximized="0" inkscape:window-width="1325" inkscape:window-x="713" inkscape:window-y="3" inkscape:zoom="0.8180949" objecttolerance="10" pagecolor="#ffffff" showgrid="false">
	</sodipodi:namedview>
<g id="g83700">
	<g id="g83686">
		<path id="path83688" inkscape:connector-curvature="0" class="st0" d="M0,599.4c0-0.8,11.6-12.4,12.5-12.4
			c0.7,0,11.8,10.6,12.6,12.1c0.4,0.7,0.3,0.9-0.3,0.9c-0.4,0-3.4-2.5-6.5-5.6l-5.7-5.6l-5.7,5.6C1.4,599.7,0,600.7,0,599.4z
			 M36.7,587.9c-6.7-6.7-12.2-12.5-12.2-12.9c0-1,12-13,13-13c0.7,0,38,36.9,38,37.6c0,1.6-4.1-2-19.9-17.8l-18.2-18.1l-5.6,5.6
			l-5.6,5.6l12.1,12.2c6.7,6.7,12.1,12.3,12.1,12.5C50.5,601.2,47.2,598.4,36.7,587.9z M100,599.7c0-0.5,6.9-7.5,10.1-10.3l2.9-2.5
			l5.8,5.7c6.2,6.1,7.3,7.4,5.9,7.4c-0.4,0-3.2-2.4-6.2-5.2s-5.6-5.2-5.8-5.2c-0.2,0-2.8,2.4-5.8,5.2
			C102.3,599.3,100,600.9,100,599.7L100,599.7z M136.9,588.1c-6.6-6.5-11.9-12.2-11.9-12.6c0-0.9,11.9-13.6,12.7-13.6
			c0.6,0,37.8,37,37.8,37.6c0,1.6-4.1-2-19.7-17.6l-18-18l-4.3,4.4c-2.3,2.4-4.8,5-5.5,5.8l-1.2,1.4l11.8,11.9
			c6.5,6.5,11.8,12,11.8,12.2C150.5,601.2,147.2,598.4,136.9,588.1L136.9,588.1z M199.9,599.1c0.7-1.2,11.8-12.1,12.4-12.1
			c0.3,0,3.4,2.9,6.9,6.5c8,8,7.3,9-0.9,1.2c-3.1-2.9-5.8-5.2-6-5.2c-0.3,0-2.9,2.4-5.9,5.2c-3,2.9-5.7,5.2-6.2,5.2
			C199.7,600,199.6,599.8,199.9,599.1z M236.8,588.1c-6.6-6.5-12.3-12.2-12.5-12.6c-0.3-0.5,1.3-2.5,6-7.1c3.5-3.5,6.7-6.4,7-6.4
			c0.7,0,37,35.7,37.7,37.1c0.4,0.8,0.3,0.9-0.4,0.9c-0.5,0-9-8.1-19-18.1l-18.1-18.1l-1.4,1.2c-4.2,3.7-9.6,9.3-9.6,10.1
			c0,0.5,5.2,5.9,11.5,12c11.8,11.4,13.2,12.9,11.7,12.9C249.2,600,243.4,594.7,236.8,588.1L236.8,588.1z M81.1,581.8
			c-3.6-3.6-6.6-6.7-6.6-7c0-0.3,10.9-11.7,24.2-25.2s24.2-24.9,24.2-25.2c0-0.7-10.1-10.8-10.8-10.8c-0.3,0-11.3,11-24.6,24.5
			s-24.4,24.5-24.7,24.5c-0.3,0-5.5-4.8-11.6-10.6S39.6,540.7,38.9,540l-1.4-1.2l-18.4,18.4C9,567.2,0.6,575.5,0.4,575.5
			c-1.6,0,2.1-4.1,18-20.1C28.5,545.3,37.1,537,37.5,537c0.4,0,6.3,5.3,13,11.7c7.3,7,12.5,11.6,12.8,11.4
			c0.3-0.2,11.2-11.1,24.2-24.3s24-24.1,24.4-24.1c0.5-0.1,3.3,2.3,7.3,6.4l6.5,6.5L115,535.4c-5.9,6-17,17.2-24.7,25l-14,14.1
			l5.5,5.5c3,3,5.7,5.4,6.1,5.4c0.3-0.1,11.3-11,24.4-24.4s24.2-24.3,24.6-24.4c0.5-0.1,5.7,4.8,13.2,12.2
			c6.8,6.8,12.6,12.3,12.9,12.2s11.3-11.1,24.4-24.4c13.1-13.3,24.2-24.4,24.6-24.7c0.5-0.3,2.4,1.2,7.2,6c3.5,3.5,6.4,6.7,6.4,6.9
			s-10.9,11.6-24.3,25.2s-24.2,24.9-24.1,25.3c0.1,0.3,2.6,3,5.6,5.8l5.4,5.2l7.8-8c24.7-25.2,40.9-41.2,41.5-41.2
			c0.4,0,4.2,3.3,8.4,7.4c4.2,4.1,9.9,9.4,12.5,11.8l4.7,4.4l18.3-18.2c10.1-10.1,18.4-17.9,18.5-17.6c0.1,0.3-0.2,1.3-0.8,2
			c-1.4,2-35.5,35.6-36.1,35.6c-0.3,0-6-5.3-12.8-11.8c-6.7-6.5-12.6-11.7-12.9-11.6c-0.4,0.1-11.4,11.1-24.5,24.4
			c-13.1,13.3-24.2,24.3-24.6,24.4c-0.4,0.1-3.6-2.7-7.3-6.4l-6.5-6.5l7.7-7.9c4.3-4.3,15.3-15.5,24.6-24.9
			c9.3-9.4,16.9-17.3,16.9-17.5c0-0.9-10.5-10.8-11.2-10.6c-0.4,0.1-11.4,11-24.4,24.2c-13,13.2-24,24.3-24.6,24.7
			c-0.9,0.6-1.9-0.3-13.7-12L137,538.2l-24.7,25l-24.7,25L81.1,581.8z M280.6,581.6c-3.3-3.5-6.1-6.6-6.1-6.9c0-0.7,25-25.4,25.3-25
			c0.8,0.8-1.5,3.4-11.7,13.2c-5.9,5.7-10.9,10.7-11.2,11.3c-0.5,0.9,0.2,1.7,5,6.6l5.5,5.6l5.9-5.9c3.3-3.2,6.1-5.9,6.3-5.9
			s0.3,0.4,0.3,0.8c0,1.1-11.5,12.7-12.5,12.7C287,588,283.9,585.1,280.6,581.6z M0,549.7c0-0.5,5.3-6.2,11.9-12.8L23.7,525
			l-5.6-5.6l-5.6-5.6l-5.9,5.9c-3.3,3.2-6.1,5.9-6.3,5.9S0,525.1,0,524.7c0-1,11.4-12.7,12.5-12.7c1,0,13,12,13,13
			c0,0.7-24.4,25.5-25.1,25.5C0.2,550.5,0,550.1,0,549.7z M37.4,513.7c-13.4-13.3-24.6-24.2-25-24.2s-2.9,2.3-5.7,5
			C1.3,500,0,501,0,499.7c0-0.8,10.1-11.5,11.7-12.3c0.8-0.4,2.7,1.3,14.3,12.7c7.3,7.2,18.5,18.4,24.9,24.7l11.6,11.5l5.5-5.5
			c3-3,5.5-5.7,5.5-6c0-0.3-11-11.3-24.4-24.5S24.6,476,24.3,475.6c-0.3-0.5,1.3-2.4,6-7.1c3.5-3.5,6.7-6.4,7.1-6.4
			c0.4,0,11.8,11.1,25.4,24.6l24.7,24.6l12.1-12.1c6.7-6.7,12.4-12.1,12.6-12.1c0.3,0,1.4,0.9,2.5,2s12.3,12.2,24.9,24.6l22.9,22.5
			l5.5-5.5c3-3,5.5-5.7,5.5-6c0-0.3-11-11.3-24.4-24.5c-13.4-13.2-24.6-24.3-24.8-24.7c-0.3-0.5,1.3-2.4,6-7.1
			c3.5-3.5,6.7-6.4,7.1-6.4s11.8,11.1,25.4,24.6l24.7,24.6l12.1-12.1c6.7-6.7,12.3-12.1,12.6-12.1s1.4,0.9,2.5,2
			c1.1,1.1,12.3,12.2,24.9,24.6l22.9,22.5l5.5-5.5c3-3,5.5-5.7,5.5-6c0-0.3-11-11.3-24.4-24.5c-13.4-13.2-24.6-24.3-24.8-24.7
			c-0.3-0.5,1.3-2.4,6-7.1c3.5-3.5,6.7-6.4,7.1-6.4s11.7,10.9,25.2,24.2s24.8,24.2,25.1,24.2s2.8-2.3,5.6-5c5.5-5.5,6.7-6.5,6.7-5.2
			c0,1-11.5,12.8-12.3,12.6c-0.3-0.1-11.8-11.1-25.4-24.6l-24.8-24.4l-2.4,2c-4.3,3.6-8.7,8.4-8.6,9.3c0.1,0.4,11.1,11.5,24.4,24.7
			c13.3,13.1,24.3,24.2,24.4,24.5c0.2,0.8-11.9,13.7-12.9,13.7c-0.4,0-11.8-11.1-25.4-24.6l-24.7-24.6l-12.1,12.1
			c-6.7,6.6-12.4,12.1-12.8,12.1s-11.8-11.1-25.3-24.6l-24.7-24.6l-2.4,2c-4.3,3.7-8.8,8.5-8.6,9.3c0.1,0.4,11.1,11.5,24.4,24.7
			c13.3,13.1,24.3,24.2,24.4,24.5c0.2,0.8-11.9,13.7-12.9,13.7c-0.4,0-11.7-10.9-25.1-24.2c-13.4-13.3-24.7-24.2-25-24.2
			c-0.4,0-6,5.3-12.4,11.8S87.9,513,87.6,513c-0.4,0-11.7-11-25.1-24.4s-24.6-24.4-24.9-24.5c-0.2-0.1-2.8,2.1-5.8,5
			c-3.6,3.4-5.3,5.4-5.2,6c0.1,0.5,11.1,11.6,24.4,24.8C64.3,513,75.3,524,75.4,524.3c0.2,0.8-11.9,13.7-12.9,13.6
			C62.1,538,50.8,527.1,37.4,513.7L37.4,513.7z M80.8,481.5l-6.5-6.5l7.7-7.9c4.3-4.3,15.3-15.5,24.6-24.9
			c9.3-9.4,16.9-17.3,16.9-17.5c0-0.8-10.3-10.7-11.1-10.7c-0.4,0-3.8,3.2-7.6,7.1C84.4,441.9,63.3,463,62.8,463
			c-0.3,0-6.1-5.6-13-12.4l-12.4-12.4L19,456.9C8.9,467.1,0.4,475.5,0.3,475.5c-1.4,0,2.2-4.1,18-20.1
			c10.1-10.2,18.6-18.7,19.1-18.8c0.5-0.1,5.4,4.4,13.2,12.2L63,461.2l5.2-5.2c2.9-2.9,13.7-13.9,24.1-24.5s19.2-19.4,19.6-19.7
			c0.5-0.3,2.4,1.3,7.1,6c3.5,3.5,6.4,6.7,6.4,6.9s-10.9,11.6-24.3,25.2S77,474.8,77.1,475.2c0.1,0.3,2.6,3,5.6,5.8l5.4,5.2l7.8-8
			c25.4-25.9,40.9-41.2,41.6-41.2c0.4,0,6.3,5.3,13,11.7c7.3,7,12.5,11.6,12.8,11.4c0.3-0.2,11.2-11.1,24.2-24.3
			c13-13.2,24-24.1,24.4-24.1c0.5-0.1,3.3,2.3,7.3,6.4l6.5,6.5L215,435.4c-5.9,6-17,17.2-24.7,25l-14,14.1l5.5,5.5
			c3,3,5.7,5.4,6.1,5.4c0.3-0.1,11.3-11,24.4-24.4c14.6-14.9,24.3-24.3,24.9-24.4c0.8-0.1,3.9,2.7,13.1,11.9
			c6.6,6.6,12.2,12,12.5,12c0.3,0,8.4-7.9,18-17.5s17.9-17.8,18.4-18c0.7-0.4,0.9-0.3,0.9,0.4c0,0.8-34.9,36.3-36.7,37.3
			c-0.8,0.4-2.6-1.2-13.3-11.8c-6.8-6.8-12.6-12.3-12.8-12.3c-0.3,0-11.5,11.2-25.1,24.9l-24.6,24.9l-6.6-6.5
			c-3.6-3.6-6.6-6.7-6.6-7c0-0.3,10.9-11.7,24.2-25.2s24.2-24.9,24.2-25.2c0-0.7-10.1-10.8-10.8-10.8c-0.3,0-11.3,11-24.6,24.5
			c-13.3,13.5-24.4,24.5-24.6,24.5s-6-5.3-12.8-11.8c-6.7-6.5-12.6-11.7-12.9-11.6c-0.4,0.1-11.4,11.1-24.5,24.4
			S88.5,487.8,88,487.9C87.6,488,84.5,485.2,80.8,481.5z M281.1,482c-3.5-3.3-6.4-6.4-6.5-6.8c-0.2-0.7,22.6-24.1,24.6-25.2
			c0.7-0.4,0.9-0.3,0.9,0.4c0,0.5-5.3,6.2-11.9,12.8l-11.9,12l5.5,5.2c3,2.9,5.7,5.2,6,5.2c0.3,0,2.8-2.2,5.5-5
			c5.5-5.5,6.7-6.5,6.7-5.2c0,0.8-11.3,12.7-12.1,12.7C287.7,488,284.6,485.3,281.1,482L281.1,482z M0,449.7
			c0-0.5,5.3-6.2,11.8-12.7l11.8-11.9l-2-2.4c-1.1-1.3-3.6-4-5.6-5.9l-3.5-3.5l-6,6.1c-3.3,3.4-6.1,6.1-6.2,6.1S0,425.1,0,424.7
			c0-0.9,11.9-13.2,12.8-13.2c0.8,0,12.7,12.7,12.7,13.6c0,0.7-24.5,25.4-25.1,25.4C0.2,450.5,0,450.1,0,449.7z M37.1,413.4
			l-24.6-24.6l-5.9,5.8c-3.2,3.2-6,5.8-6.2,5.8S0,400.1,0,399.7c0-0.9,11.4-12.7,12.2-12.7c0.3,0,1.5,0.9,2.5,2s12.3,12.2,24.9,24.6
			l22.9,22.5l5.5-5.5c3-3,5.5-5.7,5.5-6c0-0.3-11-11.3-24.4-24.5S24.6,376,24.3,375.6c-0.3-0.5,1.3-2.4,6-7.1
			c3.5-3.5,6.7-6.4,7.1-6.4s11.6,10.9,25.1,24.2s24.6,24.2,24.9,24.2c0.3,0,5.4-5,11.5-11c6-6.1,11.6-11.4,12.4-11.8l1.4-0.8
			l13.6,13.4c7.5,7.4,18.7,18.5,24.9,24.7l11.4,11.2l5.5-5.5c3-3,5.5-5.7,5.5-6c0-0.3-11-11.3-24.4-24.5
			c-13.4-13.2-24.6-24.3-24.8-24.7c-0.3-0.5,1.3-2.4,6-7.1c3.5-3.5,6.7-6.4,7.1-6.4s11.8,11.1,25.4,24.6l24.7,24.6l12.1-12.1
			c6.7-6.7,12.3-12.1,12.6-12.1s1.4,0.9,2.5,2c1.1,1.1,12.3,12.2,24.9,24.6l22.9,22.5l5.5-5.5c3-3,5.5-5.7,5.5-6
			c0-0.3-11-11.3-24.4-24.5c-13.4-13.2-24.6-24.3-24.8-24.7c-0.3-0.5,1.3-2.4,6-7.1c3.5-3.5,6.7-6.4,7.1-6.4s11.8,11.1,25.4,24.6
			l24.7,24.6l6.1-6c3.4-3.4,6.2-5.7,6.3-5.3c0.1,0.3-0.2,1.2-0.8,2c-1.6,2.2-10.9,11.1-11.6,11.1c-0.3,0-11.7-11.1-25.3-24.6
			l-24.7-24.6l-2.4,2c-4.3,3.7-8.8,8.5-8.6,9.3c0.1,0.4,11.1,11.5,24.4,24.7c13.3,13.1,24.3,24.2,24.4,24.5
			c0.2,0.8-11.9,13.7-12.9,13.7c-0.4,0-11.7-10.9-25.1-24.2c-13.4-13.3-24.7-24.2-25-24.2c-0.4,0-6,5.3-12.4,11.8S188,413,187.6,413
			c-0.4,0-11.8-11.1-25.4-24.6l-24.7-24.6l-2.4,2c-4.3,3.7-8.8,8.5-8.6,9.3c0.1,0.4,11.1,11.5,24.4,24.7
			c13.3,13.1,24.3,24.2,24.4,24.5c0.2,0.8-11.9,13.7-12.9,13.7c-0.4,0-10.2-9.5-21.8-21c-11.5-11.6-22.7-22.6-24.9-24.5l-3.9-3.5
			l-12,11.7c-6.6,6.4-12.4,11.7-12.8,11.8c-0.5,0.1-10.5-9.5-25.2-24.2l-24.5-24.4l-2.4,2c-4.3,3.7-8.8,8.5-8.6,9.3
			c0.1,0.4,11.1,11.5,24.4,24.7s24.3,24.1,24.4,24.5c0.2,0.8-11.9,13.7-12.9,13.6C62.1,438,50.7,426.9,37.1,413.4L37.1,413.4z
			 M81.1,381.8c-3.6-3.6-6.6-6.7-6.6-7c0-0.3,10.9-11.7,24.2-25.2s24.2-24.9,24.2-25.2c0-0.7-10.1-10.8-10.8-10.8
			c-0.3,0-11.3,11-24.6,24.5s-24.4,24.5-24.7,24.5c-0.3,0-5.5-4.8-11.6-10.6S39.6,340.7,38.9,340l-1.4-1.2l-18.5,18.5
			C8.6,367.5,0.3,375.5,0.2,375.1c-0.1-0.3,0.2-1.2,0.8-2c1.9-2.6,35.9-36.1,36.6-36.1c0.4,0,6.2,5.3,13,11.7
			c7.3,7,12.5,11.6,12.8,11.4c0.3-0.2,11.2-11.1,24.2-24.3s24-24.1,24.4-24.1c0.5-0.1,3.3,2.3,7.3,6.4l6.5,6.5L115,335.4
			c-5.9,6-17,17.2-24.7,25l-14,14.1l5.5,5.5c3,3,5.7,5.4,6.1,5.4c0.3-0.1,11.3-11,24.4-24.4c13.8-14,24.2-24.2,24.7-24.2
			c0.5,0,6.6,5.5,13.5,12.2l12.6,12.2l5.1-5.2c2.8-2.9,13.7-13.9,24.1-24.5c10.4-10.6,19.3-19.4,19.6-19.7c0.5-0.3,2.4,1.3,7.1,6
			c3.5,3.5,6.4,6.7,6.4,6.9s-10.9,11.6-24.3,25.2s-24.2,24.9-24.1,25.3c0.1,0.3,2.6,3,5.6,5.8l5.4,5.2l7.8-8
			c25.3-25.7,40.9-41.2,41.6-41.2c0.4,0,6.2,5.5,12.9,12.1l12.1,12.1l18.4-18.4c10.1-10.1,18.6-18.4,18.8-18.4
			c1.6,0-2.1,4.1-18,20.1c-10.1,10.1-18.7,18.4-19.1,18.4s-6.2-5.4-12.8-12c-6.6-6.6-12.3-11.9-12.6-11.9
			c-0.3,0.1-11.4,11-24.5,24.4c-13.1,13.3-24.2,24.3-24.6,24.4c-0.4,0.1-3.6-2.7-7.3-6.4l-6.5-6.5l7.7-7.9
			c4.3-4.3,15.3-15.5,24.6-24.9s16.9-17.3,16.9-17.5c0-0.8-10.3-10.7-11.1-10.7c-0.4,0-3.8,3.2-7.6,7.1
			c-20.2,20.6-41.4,41.9-41.9,41.9c-0.3,0-6.1-5.5-12.8-12.2s-12.5-12.3-12.8-12.3c-0.3,0-11.5,11.2-25,24.9l-24.6,24.9L81.1,381.8z
			 M281,381.8c-3.6-3.5-6.5-6.7-6.5-7c0-0.6,23.3-24.1,24.6-24.9c0.7-0.4,0.9-0.3,0.9,0.4c0,0.5-5.2,6.1-11.5,12.4
			c-6.3,6.4-11.5,11.8-11.5,12.1c0,0.6,9.7,10.3,10.6,10.6c0.3,0.1,3.1-2.4,6.3-5.5c3.7-3.7,5.9-5.4,6-5c0.1,0.4-2.4,3.3-6.1,7
			l-6.3,6.3L281,381.8L281,381.8z M0,349.7c0-0.5,5.3-6.2,11.9-12.8L23.7,325l-5.6-5.6l-5.6-5.6l-5.9,5.9c-3.3,3.2-6.1,5.9-6.3,5.9
			S0,325.1,0,324.7c0-1,11.4-12.7,12.5-12.7c1,0,13,12,13,13c0,0.7-24.4,25.5-25.1,25.5C0.2,350.5,0,350.1,0,349.7z M43.1,319.4
			c-10.2-10.3-18.6-18.8-18.6-19c0-1.6,4.1,2,19.9,17.8l18.2,18.1l5.6-5.6l5.6-5.6l-12.1-12.2c-6.7-6.7-12.1-12.3-12.1-12.5
			c0-0.2,0.4-0.4,0.8-0.4c1.1,0,25.2,23.9,25.2,25c0,1-12,13-13,13C62.1,338,53.4,329.6,43.1,319.4z M143.1,319.4
			c-10.2-10.3-18.6-18.8-18.6-19c0-1.6,4.1,2,19.9,17.8l18.2,18.1l5.6-5.6l5.6-5.6l-12.2-12.3c-6.8-6.9-12-12.4-11.6-12.5
			c0.3-0.1,1.2,0.2,2,0.8c2.4,1.8,23.6,23.3,23.6,24.1c0,1-12,13-13,13C162.1,338,153.4,329.6,143.1,319.4L143.1,319.4z
			 M243.1,319.4c-10.2-10.3-18.6-18.8-18.6-19c0-1.6,4.1,2,19.8,17.8l18.2,18.1l5.5-5.5c3-3,5.5-5.7,5.5-6.1c0-0.3-5.3-5.7-11.7-12
			s-11.8-11.7-12-12c-0.1-0.4,0.1-0.7,0.5-0.7c0.8,0,24.8,23.3,25.1,24.3c0.2,0.8-11.9,13.7-12.9,13.7
			C262.1,338,253.4,329.6,243.1,319.4L243.1,319.4z M81.1,307.4c-6.1-6-7.2-7.4-5.9-7.4c0.4,0,3.4,2.5,6.5,5.6l5.7,5.6l5.7-5.6
			c3.1-3.1,6.1-5.6,6.5-5.6c0.6,0,0.7,0.2,0.3,0.9c-0.8,1.4-11.9,12.1-12.6,12.1C87.1,313,84.3,310.5,81.1,307.4z M180.6,306.8
			c-3.4-3.4-6.1-6.3-6.1-6.5c0-1.3,2.4,0.4,7.3,5.3l5.7,5.6l5.7-5.6c4.9-4.8,7.3-6.5,7.3-5.3c0,0.7-12.3,12.7-13,12.7
			C187.1,313,184,310.2,180.6,306.8z M280.6,306.8c-3.4-3.4-6.1-6.3-6.1-6.5c0-1.3,2.4,0.4,7.3,5.3l5.7,5.6l5.7-5.6
			c5.4-5.3,6.8-6.3,6.8-5c0,0.9-11.6,12.5-12.5,12.5C287.1,313,284,310.2,280.6,306.8L280.6,306.8z"/>
	</g>
	<g id="g83692" transform="translate(300,0)">
		<path id="path83694" inkscape:connector-curvature="0" class="st0" d="M0,599.4c0-0.8,11.6-12.4,12.5-12.4
			c0.7,0,11.8,10.6,12.6,12.1c0.4,0.7,0.3,0.9-0.3,0.9c-0.4,0-3.4-2.5-6.5-5.6l-5.7-5.6l-5.7,5.6C1.4,599.7,0,600.7,0,599.4z
			 M36.7,587.9c-6.7-6.7-12.2-12.5-12.2-12.9c0-1,12-13,13-13c0.7,0,38,36.9,38,37.6c0,1.6-4.1-2-19.9-17.8l-18.2-18.1l-5.6,5.6
			l-5.6,5.6l12.1,12.2c6.7,6.7,12.1,12.3,12.1,12.5C50.5,601.2,47.2,598.4,36.7,587.9z M100,599.7c0-0.5,6.9-7.5,10.1-10.3l2.9-2.5
			l5.8,5.7c6.2,6.1,7.3,7.4,5.9,7.4c-0.4,0-3.2-2.4-6.2-5.2s-5.6-5.2-5.8-5.2c-0.2,0-2.8,2.4-5.8,5.2
			C102.3,599.3,100,600.9,100,599.7L100,599.7z M136.9,588.1c-6.6-6.5-11.9-12.2-11.9-12.6c0-0.9,11.9-13.6,12.7-13.6
			c0.6,0,37.8,37,37.8,37.6c0,1.6-4.1-2-19.7-17.6l-18-18l-4.3,4.4c-2.3,2.4-4.8,5-5.5,5.8l-1.2,1.4l11.8,11.9
			c6.5,6.5,11.8,12,11.8,12.2C150.5,601.2,147.2,598.4,136.9,588.1L136.9,588.1z M199.9,599.1c0.7-1.2,11.8-12.1,12.4-12.1
			c0.3,0,3.4,2.9,6.9,6.5c8,8,7.3,9-0.9,1.2c-3.1-2.9-5.8-5.2-6-5.2c-0.3,0-2.9,2.4-5.9,5.2c-3,2.9-5.7,5.2-6.2,5.2
			C199.7,600,199.6,599.8,199.9,599.1z M236.8,588.1c-6.6-6.5-12.3-12.2-12.5-12.6c-0.3-0.5,1.3-2.5,6-7.1c3.5-3.5,6.7-6.4,7-6.4
			c0.7,0,37,35.7,37.7,37.1c0.4,0.8,0.3,0.9-0.4,0.9c-0.5,0-9-8.1-19-18.1l-18.1-18.1l-1.4,1.2c-4.2,3.7-9.6,9.3-9.6,10.1
			c0,0.5,5.2,5.9,11.5,12c11.8,11.4,13.2,12.9,11.7,12.9C249.2,600,243.4,594.7,236.8,588.1L236.8,588.1z M81.1,581.8
			c-3.6-3.6-6.6-6.7-6.6-7c0-0.3,10.9-11.7,24.2-25.2s24.2-24.9,24.2-25.2c0-0.7-10.1-10.8-10.8-10.8c-0.3,0-11.3,11-24.6,24.5
			s-24.4,24.5-24.7,24.5c-0.3,0-5.5-4.8-11.6-10.6S39.6,540.7,38.9,540l-1.4-1.2l-18.4,18.4C9,567.2,0.6,575.5,0.4,575.5
			c-1.6,0,2.1-4.1,18-20.1C28.5,545.3,37.1,537,37.5,537c0.4,0,6.3,5.3,13,11.7c7.3,7,12.5,11.6,12.8,11.4
			c0.3-0.2,11.2-11.1,24.2-24.3s24-24.1,24.4-24.1c0.5-0.1,3.3,2.3,7.3,6.4l6.5,6.5L115,535.4c-5.9,6-17,17.2-24.7,25l-14,14.1
			l5.5,5.5c3,3,5.7,5.4,6.1,5.4c0.3-0.1,11.3-11,24.4-24.4s24.2-24.3,24.6-24.4c0.5-0.1,5.7,4.8,13.2,12.2
			c6.8,6.8,12.6,12.3,12.9,12.2s11.3-11.1,24.4-24.4c13.1-13.3,24.2-24.4,24.6-24.7c0.5-0.3,2.4,1.2,7.2,6c3.5,3.5,6.4,6.7,6.4,6.9
			s-10.9,11.6-24.3,25.2s-24.2,24.9-24.1,25.3c0.1,0.3,2.6,3,5.6,5.8l5.4,5.2l7.8-8c24.7-25.2,40.9-41.2,41.5-41.2
			c0.4,0,4.2,3.3,8.4,7.4c4.2,4.1,9.9,9.4,12.5,11.8l4.7,4.4l18.3-18.2c10.1-10.1,18.4-17.9,18.5-17.6c0.1,0.3-0.2,1.3-0.8,2
			c-1.4,2-35.5,35.6-36.1,35.6c-0.3,0-6-5.3-12.8-11.8c-6.7-6.5-12.6-11.7-12.9-11.6c-0.4,0.1-11.4,11.1-24.5,24.4
			c-13.1,13.3-24.2,24.3-24.6,24.4c-0.4,0.1-3.6-2.7-7.3-6.4l-6.5-6.5l7.7-7.9c4.3-4.3,15.3-15.5,24.6-24.9
			c9.3-9.4,16.9-17.3,16.9-17.5c0-0.9-10.5-10.8-11.2-10.6c-0.4,0.1-11.4,11-24.4,24.2c-13,13.2-24,24.3-24.6,24.7
			c-0.9,0.6-1.9-0.3-13.7-12L137,538.2l-24.7,25l-24.7,25L81.1,581.8z M280.6,581.6c-3.3-3.5-6.1-6.6-6.1-6.9c0-0.7,25-25.4,25.3-25
			c0.8,0.8-1.5,3.4-11.7,13.2c-5.9,5.7-10.9,10.7-11.2,11.3c-0.5,0.9,0.2,1.7,5,6.6l5.5,5.6l5.9-5.9c3.3-3.2,6.1-5.9,6.3-5.9
			s0.3,0.4,0.3,0.8c0,1.1-11.5,12.7-12.5,12.7C287,588,283.9,585.1,280.6,581.6z M0,549.7c0-0.5,5.3-6.2,11.9-12.8L23.7,525
			l-5.6-5.6l-5.6-5.6l-5.9,5.9c-3.3,3.2-6.1,5.9-6.3,5.9S0,525.1,0,524.7c0-1,11.4-12.7,12.5-12.7c1,0,13,12,13,13
			c0,0.7-24.4,25.5-25.1,25.5C0.2,550.5,0,550.1,0,549.7z M37.4,513.7c-13.4-13.3-24.6-24.2-25-24.2s-2.9,2.3-5.7,5
			C1.3,500,0,501,0,499.7c0-0.8,10.1-11.5,11.7-12.3c0.8-0.4,2.7,1.3,14.3,12.7c7.3,7.2,18.5,18.4,24.9,24.7l11.6,11.5l5.5-5.5
			c3-3,5.5-5.7,5.5-6c0-0.3-11-11.3-24.4-24.5S24.6,476,24.3,475.6c-0.3-0.5,1.3-2.4,6-7.1c3.5-3.5,6.7-6.4,7.1-6.4
			c0.4,0,11.8,11.1,25.4,24.6l24.7,24.6l12.1-12.1c6.7-6.7,12.4-12.1,12.6-12.1c0.3,0,1.4,0.9,2.5,2s12.3,12.2,24.9,24.6l22.9,22.5
			l5.5-5.5c3-3,5.5-5.7,5.5-6c0-0.3-11-11.3-24.4-24.5c-13.4-13.2-24.6-24.3-24.8-24.7c-0.3-0.5,1.3-2.4,6-7.1
			c3.5-3.5,6.7-6.4,7.1-6.4s11.8,11.1,25.4,24.6l24.7,24.6l12.1-12.1c6.7-6.7,12.3-12.1,12.6-12.1s1.4,0.9,2.5,2
			c1.1,1.1,12.3,12.2,24.9,24.6l22.9,22.5l5.5-5.5c3-3,5.5-5.7,5.5-6c0-0.3-11-11.3-24.4-24.5c-13.4-13.2-24.6-24.3-24.8-24.7
			c-0.3-0.5,1.3-2.4,6-7.1c3.5-3.5,6.7-6.4,7.1-6.4s11.7,10.9,25.2,24.2s24.8,24.2,25.1,24.2s2.8-2.3,5.6-5c5.5-5.5,6.7-6.5,6.7-5.2
			c0,1-11.5,12.8-12.3,12.6c-0.3-0.1-11.8-11.1-25.4-24.6l-24.8-24.4l-2.4,2c-4.3,3.6-8.7,8.4-8.6,9.3c0.1,0.4,11.1,11.5,24.4,24.7
			c13.3,13.1,24.3,24.2,24.4,24.5c0.2,0.8-11.9,13.7-12.9,13.7c-0.4,0-11.8-11.1-25.4-24.6l-24.7-24.6l-12.1,12.1
			c-6.7,6.6-12.4,12.1-12.8,12.1s-11.8-11.1-25.3-24.6l-24.7-24.6l-2.4,2c-4.3,3.7-8.8,8.5-8.6,9.3c0.1,0.4,11.1,11.5,24.4,24.7
			c13.3,13.1,24.3,24.2,24.4,24.5c0.2,0.8-11.9,13.7-12.9,13.7c-0.4,0-11.7-10.9-25.1-24.2c-13.4-13.3-24.7-24.2-25-24.2
			c-0.4,0-6,5.3-12.4,11.8S87.9,513,87.6,513c-0.4,0-11.7-11-25.1-24.4s-24.6-24.4-24.9-24.5c-0.2-0.1-2.8,2.1-5.8,5
			c-3.6,3.4-5.3,5.4-5.2,6c0.1,0.5,11.1,11.6,24.4,24.8C64.3,513,75.3,524,75.4,524.3c0.2,0.8-11.9,13.7-12.9,13.6
			C62.1,538,50.8,527.1,37.4,513.7L37.4,513.7z M80.8,481.5l-6.5-6.5l7.7-7.9c4.3-4.3,15.3-15.5,24.6-24.9
			c9.3-9.4,16.9-17.3,16.9-17.5c0-0.8-10.3-10.7-11.1-10.7c-0.4,0-3.8,3.2-7.6,7.1C84.4,441.9,63.3,463,62.8,463
			c-0.3,0-6.1-5.6-13-12.4l-12.4-12.4L19,456.9C8.9,467.1,0.4,475.5,0.3,475.5c-1.4,0,2.2-4.1,18-20.1
			c10.1-10.2,18.6-18.7,19.1-18.8c0.5-0.1,5.4,4.4,13.2,12.2L63,461.2l5.2-5.2c2.9-2.9,13.7-13.9,24.1-24.5s19.2-19.4,19.6-19.7
			c0.5-0.3,2.4,1.3,7.1,6c3.5,3.5,6.4,6.7,6.4,6.9s-10.9,11.6-24.3,25.2S77,474.8,77.1,475.2c0.1,0.3,2.6,3,5.6,5.8l5.4,5.2l7.8-8
			c25.4-25.9,40.9-41.2,41.6-41.2c0.4,0,6.3,5.3,13,11.7c7.3,7,12.5,11.6,12.8,11.4c0.3-0.2,11.2-11.1,24.2-24.3
			c13-13.2,24-24.1,24.4-24.1c0.5-0.1,3.3,2.3,7.3,6.4l6.5,6.5L215,435.4c-5.9,6-17,17.2-24.7,25l-14,14.1l5.5,5.5
			c3,3,5.7,5.4,6.1,5.4c0.3-0.1,11.3-11,24.4-24.4c14.6-14.9,24.3-24.3,24.9-24.4c0.8-0.1,3.9,2.7,13.1,11.9
			c6.6,6.6,12.2,12,12.5,12c0.3,0,8.4-7.9,18-17.5s17.9-17.8,18.4-18c0.7-0.4,0.9-0.3,0.9,0.4c0,0.8-34.9,36.3-36.7,37.3
			c-0.8,0.4-2.6-1.2-13.3-11.8c-6.8-6.8-12.6-12.3-12.8-12.3c-0.3,0-11.5,11.2-25.1,24.9l-24.6,24.9l-6.6-6.5
			c-3.6-3.6-6.6-6.7-6.6-7c0-0.3,10.9-11.7,24.2-25.2s24.2-24.9,24.2-25.2c0-0.7-10.1-10.8-10.8-10.8c-0.3,0-11.3,11-24.6,24.5
			c-13.3,13.5-24.4,24.5-24.6,24.5s-6-5.3-12.8-11.8c-6.7-6.5-12.6-11.7-12.9-11.6c-0.4,0.1-11.4,11.1-24.5,24.4
			S88.5,487.8,88,487.9C87.6,488,84.5,485.2,80.8,481.5z M281.1,482c-3.5-3.3-6.4-6.4-6.5-6.8c-0.2-0.7,22.6-24.1,24.6-25.2
			c0.7-0.4,0.9-0.3,0.9,0.4c0,0.5-5.3,6.2-11.9,12.8l-11.9,12l5.5,5.2c3,2.9,5.7,5.2,6,5.2c0.3,0,2.8-2.2,5.5-5
			c5.5-5.5,6.7-6.5,6.7-5.2c0,0.8-11.3,12.7-12.1,12.7C287.7,488,284.6,485.3,281.1,482L281.1,482z M0,449.7
			c0-0.5,5.3-6.2,11.8-12.7l11.8-11.9l-2-2.4c-1.1-1.3-3.6-4-5.6-5.9l-3.5-3.5l-6,6.1c-3.3,3.4-6.1,6.1-6.2,6.1S0,425.1,0,424.7
			c0-0.9,11.9-13.2,12.8-13.2c0.8,0,12.7,12.7,12.7,13.6c0,0.7-24.5,25.4-25.1,25.4C0.2,450.5,0,450.1,0,449.7z M37.1,413.4
			l-24.6-24.6l-5.9,5.8c-3.2,3.2-6,5.8-6.2,5.8S0,400.1,0,399.7c0-0.9,11.4-12.7,12.2-12.7c0.3,0,1.5,0.9,2.5,2s12.3,12.2,24.9,24.6
			l22.9,22.5l5.5-5.5c3-3,5.5-5.7,5.5-6c0-0.3-11-11.3-24.4-24.5S24.6,376,24.3,375.6c-0.3-0.5,1.3-2.4,6-7.1
			c3.5-3.5,6.7-6.4,7.1-6.4s11.6,10.9,25.1,24.2s24.6,24.2,24.9,24.2c0.3,0,5.4-5,11.5-11c6-6.1,11.6-11.4,12.4-11.8l1.4-0.8
			l13.6,13.4c7.5,7.4,18.7,18.5,24.9,24.7l11.4,11.2l5.5-5.5c3-3,5.5-5.7,5.5-6c0-0.3-11-11.3-24.4-24.5
			c-13.4-13.2-24.6-24.3-24.8-24.7c-0.3-0.5,1.3-2.4,6-7.1c3.5-3.5,6.7-6.4,7.1-6.4s11.8,11.1,25.4,24.6l24.7,24.6l12.1-12.1
			c6.7-6.7,12.3-12.1,12.6-12.1s1.4,0.9,2.5,2c1.1,1.1,12.3,12.2,24.9,24.6l22.9,22.5l5.5-5.5c3-3,5.5-5.7,5.5-6
			c0-0.3-11-11.3-24.4-24.5c-13.4-13.2-24.6-24.3-24.8-24.7c-0.3-0.5,1.3-2.4,6-7.1c3.5-3.5,6.7-6.4,7.1-6.4s11.8,11.1,25.4,24.6
			l24.7,24.6l6.1-6c3.4-3.4,6.2-5.7,6.3-5.3c0.1,0.3-0.2,1.2-0.8,2c-1.6,2.2-10.9,11.1-11.6,11.1c-0.3,0-11.7-11.1-25.3-24.6
			l-24.7-24.6l-2.4,2c-4.3,3.7-8.8,8.5-8.6,9.3c0.1,0.4,11.1,11.5,24.4,24.7c13.3,13.1,24.3,24.2,24.4,24.5
			c0.2,0.8-11.9,13.7-12.9,13.7c-0.4,0-11.7-10.9-25.1-24.2c-13.4-13.3-24.7-24.2-25-24.2c-0.4,0-6,5.3-12.4,11.8S188,413,187.6,413
			c-0.4,0-11.8-11.1-25.4-24.6l-24.7-24.6l-2.4,2c-4.3,3.7-8.8,8.5-8.6,9.3c0.1,0.4,11.1,11.5,24.4,24.7
			c13.3,13.1,24.3,24.2,24.4,24.5c0.2,0.8-11.9,13.7-12.9,13.7c-0.4,0-10.2-9.5-21.8-21c-11.5-11.6-22.7-22.6-24.9-24.5l-3.9-3.5
			l-12,11.7c-6.6,6.4-12.4,11.7-12.8,11.8c-0.5,0.1-10.5-9.5-25.2-24.2l-24.5-24.4l-2.4,2c-4.3,3.7-8.8,8.5-8.6,9.3
			c0.1,0.4,11.1,11.5,24.4,24.7s24.3,24.1,24.4,24.5c0.2,0.8-11.9,13.7-12.9,13.6C62.1,438,50.7,426.9,37.1,413.4L37.1,413.4z
			 M81.1,381.8c-3.6-3.6-6.6-6.7-6.6-7c0-0.3,10.9-11.7,24.2-25.2s24.2-24.9,24.2-25.2c0-0.7-10.1-10.8-10.8-10.8
			c-0.3,0-11.3,11-24.6,24.5s-24.4,24.5-24.7,24.5c-0.3,0-5.5-4.8-11.6-10.6S39.6,340.7,38.9,340l-1.4-1.2l-18.5,18.5
			C8.6,367.5,0.3,375.5,0.2,375.1c-0.1-0.3,0.2-1.2,0.8-2c1.9-2.6,35.9-36.1,36.6-36.1c0.4,0,6.2,5.3,13,11.7
			c7.3,7,12.5,11.6,12.8,11.4c0.3-0.2,11.2-11.1,24.2-24.3s24-24.1,24.4-24.1c0.5-0.1,3.3,2.3,7.3,6.4l6.5,6.5L115,335.4
			c-5.9,6-17,17.2-24.7,25l-14,14.1l5.5,5.5c3,3,5.7,5.4,6.1,5.4c0.3-0.1,11.3-11,24.4-24.4c13.8-14,24.2-24.2,24.7-24.2
			c0.5,0,6.6,5.5,13.5,12.2l12.6,12.2l5.1-5.2c2.8-2.9,13.7-13.9,24.1-24.5c10.4-10.6,19.3-19.4,19.6-19.7c0.5-0.3,2.4,1.3,7.1,6
			c3.5,3.5,6.4,6.7,6.4,6.9s-10.9,11.6-24.3,25.2s-24.2,24.9-24.1,25.3c0.1,0.3,2.6,3,5.6,5.8l5.4,5.2l7.8-8
			c25.3-25.7,40.9-41.2,41.6-41.2c0.4,0,6.2,5.5,12.9,12.1l12.1,12.1l18.4-18.4c10.1-10.1,18.6-18.4,18.8-18.4
			c1.6,0-2.1,4.1-18,20.1c-10.1,10.1-18.7,18.4-19.1,18.4s-6.2-5.4-12.8-12c-6.6-6.6-12.3-11.9-12.6-11.9
			c-0.3,0.1-11.4,11-24.5,24.4c-13.1,13.3-24.2,24.3-24.6,24.4c-0.4,0.1-3.6-2.7-7.3-6.4l-6.5-6.5l7.7-7.9
			c4.3-4.3,15.3-15.5,24.6-24.9s16.9-17.3,16.9-17.5c0-0.8-10.3-10.7-11.1-10.7c-0.4,0-3.8,3.2-7.6,7.1
			c-20.2,20.6-41.4,41.9-41.9,41.9c-0.3,0-6.1-5.5-12.8-12.2s-12.5-12.3-12.8-12.3c-0.3,0-11.5,11.2-25,24.9l-24.6,24.9L81.1,381.8z
			 M281,381.8c-3.6-3.5-6.5-6.7-6.5-7c0-0.6,23.3-24.1,24.6-24.9c0.7-0.4,0.9-0.3,0.9,0.4c0,0.5-5.2,6.1-11.5,12.4
			c-6.3,6.4-11.5,11.8-11.5,12.1c0,0.6,9.7,10.3,10.6,10.6c0.3,0.1,3.1-2.4,6.3-5.5c3.7-3.7,5.9-5.4,6-5c0.1,0.4-2.4,3.3-6.1,7
			l-6.3,6.3L281,381.8L281,381.8z M0,349.7c0-0.5,5.3-6.2,11.9-12.8L23.7,325l-5.6-5.6l-5.6-5.6l-5.9,5.9c-3.3,3.2-6.1,5.9-6.3,5.9
			S0,325.1,0,324.7c0-1,11.4-12.7,12.5-12.7c1,0,13,12,13,13c0,0.7-24.4,25.5-25.1,25.5C0.2,350.5,0,350.1,0,349.7z M43.1,319.4
			c-10.2-10.3-18.6-18.8-18.6-19c0-1.6,4.1,2,19.9,17.8l18.2,18.1l5.6-5.6l5.6-5.6l-12.1-12.2c-6.7-6.7-12.1-12.3-12.1-12.5
			c0-0.2,0.4-0.4,0.8-0.4c1.1,0,25.2,23.9,25.2,25c0,1-12,13-13,13C62.1,338,53.4,329.6,43.1,319.4z M143.1,319.4
			c-10.2-10.3-18.6-18.8-18.6-19c0-1.6,4.1,2,19.9,17.8l18.2,18.1l5.6-5.6l5.6-5.6l-12.2-12.3c-6.8-6.9-12-12.4-11.6-12.5
			c0.3-0.1,1.2,0.2,2,0.8c2.4,1.8,23.6,23.3,23.6,24.1c0,1-12,13-13,13C162.1,338,153.4,329.6,143.1,319.4L143.1,319.4z
			 M243.1,319.4c-10.2-10.3-18.6-18.8-18.6-19c0-1.6,4.1,2,19.8,17.8l18.2,18.1l5.5-5.5c3-3,5.5-5.7,5.5-6.1c0-0.3-5.3-5.7-11.7-12
			s-11.8-11.7-12-12c-0.1-0.4,0.1-0.7,0.5-0.7c0.8,0,24.8,23.3,25.1,24.3c0.2,0.8-11.9,13.7-12.9,13.7
			C262.1,338,253.4,329.6,243.1,319.4L243.1,319.4z M81.1,307.4c-6.1-6-7.2-7.4-5.9-7.4c0.4,0,3.4,2.5,6.5,5.6l5.7,5.6l5.7-5.6
			c3.1-3.1,6.1-5.6,6.5-5.6c0.6,0,0.7,0.2,0.3,0.9c-0.8,1.4-11.9,12.1-12.6,12.1C87.1,313,84.3,310.5,81.1,307.4z M180.6,306.8
			c-3.4-3.4-6.1-6.3-6.1-6.5c0-1.3,2.4,0.4,7.3,5.3l5.7,5.6l5.7-5.6c4.9-4.8,7.3-6.5,7.3-5.3c0,0.7-12.3,12.7-13,12.7
			C187.1,313,184,310.2,180.6,306.8z M280.6,306.8c-3.4-3.4-6.1-6.3-6.1-6.5c0-1.3,2.4,0.4,7.3,5.3l5.7,5.6l5.7-5.6
			c5.4-5.3,6.8-6.3,6.8-5c0,0.9-11.6,12.5-12.5,12.5C287.1,313,284,310.2,280.6,306.8L280.6,306.8z"/>
	</g>
</g>
<g id="g83706" transform="translate(0,-299.92613)">
	<g id="g83708">
		<path id="path83710" inkscape:connector-curvature="0" class="st0" d="M0,599.4c0-0.8,11.6-12.4,12.5-12.4
			c0.7,0,11.8,10.6,12.6,12.1c0.4,0.7,0.3,0.9-0.3,0.9c-0.4,0-3.4-2.5-6.5-5.6l-5.7-5.6l-5.7,5.6C1.4,599.7,0,600.7,0,599.4z
			 M36.7,587.9c-6.7-6.7-12.2-12.5-12.2-12.9c0-1,12-13,13-13c0.7,0,38,36.9,38,37.6c0,1.6-4.1-2-19.9-17.8l-18.2-18.1l-5.6,5.6
			l-5.6,5.6l12.1,12.2c6.7,6.7,12.1,12.3,12.1,12.5C50.5,601.2,47.2,598.4,36.7,587.9z M100,599.7c0-0.5,6.9-7.5,10.1-10.3l2.9-2.5
			l5.8,5.7c6.2,6.1,7.3,7.4,5.9,7.4c-0.4,0-3.2-2.4-6.2-5.2s-5.6-5.2-5.8-5.2c-0.2,0-2.8,2.4-5.8,5.2
			C102.3,599.3,100,600.9,100,599.7L100,599.7z M136.9,588.1c-6.6-6.5-11.9-12.2-11.9-12.6c0-0.9,11.9-13.6,12.7-13.6
			c0.6,0,37.8,37,37.8,37.6c0,1.6-4.1-2-19.7-17.6l-18-18l-4.3,4.4c-2.3,2.4-4.8,5-5.5,5.8l-1.2,1.4l11.8,11.9
			c6.5,6.5,11.8,12,11.8,12.2C150.5,601.2,147.2,598.4,136.9,588.1L136.9,588.1z M199.9,599.1c0.7-1.2,11.8-12.1,12.4-12.1
			c0.3,0,3.4,2.9,6.9,6.5c8,8,7.3,9-0.9,1.2c-3.1-2.9-5.8-5.2-6-5.2c-0.3,0-2.9,2.4-5.9,5.2c-3,2.9-5.7,5.2-6.2,5.2
			C199.7,600,199.6,599.8,199.9,599.1z M236.8,588.1c-6.6-6.5-12.3-12.2-12.5-12.6c-0.3-0.5,1.3-2.5,6-7.1c3.5-3.5,6.7-6.4,7-6.4
			c0.7,0,37,35.7,37.7,37.1c0.4,0.8,0.3,0.9-0.4,0.9c-0.5,0-9-8.1-19-18.1l-18.1-18.1l-1.4,1.2c-4.2,3.7-9.6,9.3-9.6,10.1
			c0,0.5,5.2,5.9,11.5,12c11.8,11.4,13.2,12.9,11.7,12.9C249.2,600,243.4,594.7,236.8,588.1L236.8,588.1z M81.1,581.8
			c-3.6-3.6-6.6-6.7-6.6-7c0-0.3,10.9-11.7,24.2-25.2s24.2-24.9,24.2-25.2c0-0.7-10.1-10.8-10.8-10.8c-0.3,0-11.3,11-24.6,24.5
			s-24.4,24.5-24.7,24.5c-0.3,0-5.5-4.8-11.6-10.6S39.6,540.7,38.9,540l-1.4-1.2l-18.4,18.4C9,567.2,0.6,575.5,0.4,575.5
			c-1.6,0,2.1-4.1,18-20.1C28.5,545.3,37.1,537,37.5,537c0.4,0,6.3,5.3,13,11.7c7.3,7,12.5,11.6,12.8,11.4
			c0.3-0.2,11.2-11.1,24.2-24.3s24-24.1,24.4-24.1c0.5-0.1,3.3,2.3,7.3,6.4l6.5,6.5L115,535.4c-5.9,6-17,17.2-24.7,25l-14,14.1
			l5.5,5.5c3,3,5.7,5.4,6.1,5.4c0.3-0.1,11.3-11,24.4-24.4s24.2-24.3,24.6-24.4c0.5-0.1,5.7,4.8,13.2,12.2
			c6.8,6.8,12.6,12.3,12.9,12.2s11.3-11.1,24.4-24.4c13.1-13.3,24.2-24.4,24.6-24.7c0.5-0.3,2.4,1.2,7.2,6c3.5,3.5,6.4,6.7,6.4,6.9
			s-10.9,11.6-24.3,25.2s-24.2,24.9-24.1,25.3c0.1,0.3,2.6,3,5.6,5.8l5.4,5.2l7.8-8c24.7-25.2,40.9-41.2,41.5-41.2
			c0.4,0,4.2,3.3,8.4,7.4c4.2,4.1,9.9,9.4,12.5,11.8l4.7,4.4l18.3-18.2c10.1-10.1,18.4-17.9,18.5-17.6c0.1,0.3-0.2,1.3-0.8,2
			c-1.4,2-35.5,35.6-36.1,35.6c-0.3,0-6-5.3-12.8-11.8c-6.7-6.5-12.6-11.7-12.9-11.6c-0.4,0.1-11.4,11.1-24.5,24.4
			c-13.1,13.3-24.2,24.3-24.6,24.4c-0.4,0.1-3.6-2.7-7.3-6.4l-6.5-6.5l7.7-7.9c4.3-4.3,15.3-15.5,24.6-24.9
			c9.3-9.4,16.9-17.3,16.9-17.5c0-0.9-10.5-10.8-11.2-10.6c-0.4,0.1-11.4,11-24.4,24.2c-13,13.2-24,24.3-24.6,24.7
			c-0.9,0.6-1.9-0.3-13.7-12L137,538.2l-24.7,25l-24.7,25L81.1,581.8z M280.6,581.6c-3.3-3.5-6.1-6.6-6.1-6.9c0-0.7,25-25.4,25.3-25
			c0.8,0.8-1.5,3.4-11.7,13.2c-5.9,5.7-10.9,10.7-11.2,11.3c-0.5,0.9,0.2,1.7,5,6.6l5.5,5.6l5.9-5.9c3.3-3.2,6.1-5.9,6.3-5.9
			s0.3,0.4,0.3,0.8c0,1.1-11.5,12.7-12.5,12.7C287,588,283.9,585.1,280.6,581.6z M0,549.7c0-0.5,5.3-6.2,11.9-12.8L23.7,525
			l-5.6-5.6l-5.6-5.6l-5.9,5.9c-3.3,3.2-6.1,5.9-6.3,5.9S0,525.1,0,524.7c0-1,11.4-12.7,12.5-12.7c1,0,13,12,13,13
			c0,0.7-24.4,25.5-25.1,25.5C0.2,550.5,0,550.1,0,549.7z M37.4,513.7c-13.4-13.3-24.6-24.2-25-24.2s-2.9,2.3-5.7,5
			C1.3,500,0,501,0,499.7c0-0.8,10.1-11.5,11.7-12.3c0.8-0.4,2.7,1.3,14.3,12.7c7.3,7.2,18.5,18.4,24.9,24.7l11.6,11.5l5.5-5.5
			c3-3,5.5-5.7,5.5-6c0-0.3-11-11.3-24.4-24.5S24.6,476,24.3,475.6c-0.3-0.5,1.3-2.4,6-7.1c3.5-3.5,6.7-6.4,7.1-6.4
			c0.4,0,11.8,11.1,25.4,24.6l24.7,24.6l12.1-12.1c6.7-6.7,12.4-12.1,12.6-12.1c0.3,0,1.4,0.9,2.5,2s12.3,12.2,24.9,24.6l22.9,22.5
			l5.5-5.5c3-3,5.5-5.7,5.5-6c0-0.3-11-11.3-24.4-24.5c-13.4-13.2-24.6-24.3-24.8-24.7c-0.3-0.5,1.3-2.4,6-7.1
			c3.5-3.5,6.7-6.4,7.1-6.4s11.8,11.1,25.4,24.6l24.7,24.6l12.1-12.1c6.7-6.7,12.3-12.1,12.6-12.1s1.4,0.9,2.5,2
			c1.1,1.1,12.3,12.2,24.9,24.6l22.9,22.5l5.5-5.5c3-3,5.5-5.7,5.5-6c0-0.3-11-11.3-24.4-24.5c-13.4-13.2-24.6-24.3-24.8-24.7
			c-0.3-0.5,1.3-2.4,6-7.1c3.5-3.5,6.7-6.4,7.1-6.4s11.7,10.9,25.2,24.2s24.8,24.2,25.1,24.2s2.8-2.3,5.6-5c5.5-5.5,6.7-6.5,6.7-5.2
			c0,1-11.5,12.8-12.3,12.6c-0.3-0.1-11.8-11.1-25.4-24.6l-24.8-24.4l-2.4,2c-4.3,3.6-8.7,8.4-8.6,9.3c0.1,0.4,11.1,11.5,24.4,24.7
			c13.3,13.1,24.3,24.2,24.4,24.5c0.2,0.8-11.9,13.7-12.9,13.7c-0.4,0-11.8-11.1-25.4-24.6l-24.7-24.6l-12.1,12.1
			c-6.7,6.6-12.4,12.1-12.8,12.1s-11.8-11.1-25.3-24.6l-24.7-24.6l-2.4,2c-4.3,3.7-8.8,8.5-8.6,9.3c0.1,0.4,11.1,11.5,24.4,24.7
			c13.3,13.1,24.3,24.2,24.4,24.5c0.2,0.8-11.9,13.7-12.9,13.7c-0.4,0-11.7-10.9-25.1-24.2c-13.4-13.3-24.7-24.2-25-24.2
			c-0.4,0-6,5.3-12.4,11.8S87.9,513,87.6,513c-0.4,0-11.7-11-25.1-24.4s-24.6-24.4-24.9-24.5c-0.2-0.1-2.8,2.1-5.8,5
			c-3.6,3.4-5.3,5.4-5.2,6c0.1,0.5,11.1,11.6,24.4,24.8C64.3,513,75.3,524,75.4,524.3c0.2,0.8-11.9,13.7-12.9,13.6
			C62.1,538,50.8,527.1,37.4,513.7L37.4,513.7z M80.8,481.5l-6.5-6.5l7.7-7.9c4.3-4.3,15.3-15.5,24.6-24.9
			c9.3-9.4,16.9-17.3,16.9-17.5c0-0.8-10.3-10.7-11.1-10.7c-0.4,0-3.8,3.2-7.6,7.1C84.4,441.9,63.3,463,62.8,463
			c-0.3,0-6.1-5.6-13-12.4l-12.4-12.4L19,456.9C8.9,467.1,0.4,475.5,0.3,475.5c-1.4,0,2.2-4.1,18-20.1
			c10.1-10.2,18.6-18.7,19.1-18.8c0.5-0.1,5.4,4.4,13.2,12.2L63,461.2l5.2-5.2c2.9-2.9,13.7-13.9,24.1-24.5s19.2-19.4,19.6-19.7
			c0.5-0.3,2.4,1.3,7.1,6c3.5,3.5,6.4,6.7,6.4,6.9s-10.9,11.6-24.3,25.2S77,474.8,77.1,475.2c0.1,0.3,2.6,3,5.6,5.8l5.4,5.2l7.8-8
			c25.4-25.9,40.9-41.2,41.6-41.2c0.4,0,6.3,5.3,13,11.7c7.3,7,12.5,11.6,12.8,11.4c0.3-0.2,11.2-11.1,24.2-24.3
			c13-13.2,24-24.1,24.4-24.1c0.5-0.1,3.3,2.3,7.3,6.4l6.5,6.5L215,435.4c-5.9,6-17,17.2-24.7,25l-14,14.1l5.5,5.5
			c3,3,5.7,5.4,6.1,5.4c0.3-0.1,11.3-11,24.4-24.4c14.6-14.9,24.3-24.3,24.9-24.4c0.8-0.1,3.9,2.7,13.1,11.9
			c6.6,6.6,12.2,12,12.5,12c0.3,0,8.4-7.9,18-17.5s17.9-17.8,18.4-18c0.7-0.4,0.9-0.3,0.9,0.4c0,0.8-34.9,36.3-36.7,37.3
			c-0.8,0.4-2.6-1.2-13.3-11.8c-6.8-6.8-12.6-12.3-12.8-12.3c-0.3,0-11.5,11.2-25.1,24.9l-24.6,24.9l-6.6-6.5
			c-3.6-3.6-6.6-6.7-6.6-7c0-0.3,10.9-11.7,24.2-25.2s24.2-24.9,24.2-25.2c0-0.7-10.1-10.8-10.8-10.8c-0.3,0-11.3,11-24.6,24.5
			c-13.3,13.5-24.4,24.5-24.6,24.5s-6-5.3-12.8-11.8c-6.7-6.5-12.6-11.7-12.9-11.6c-0.4,0.1-11.4,11.1-24.5,24.4
			S88.5,487.8,88,487.9C87.6,488,84.5,485.2,80.8,481.5z M281.1,482c-3.5-3.3-6.4-6.4-6.5-6.8c-0.2-0.7,22.6-24.1,24.6-25.2
			c0.7-0.4,0.9-0.3,0.9,0.4c0,0.5-5.3,6.2-11.9,12.8l-11.9,12l5.5,5.2c3,2.9,5.7,5.2,6,5.2c0.3,0,2.8-2.2,5.5-5
			c5.5-5.5,6.7-6.5,6.7-5.2c0,0.8-11.3,12.7-12.1,12.7C287.7,488,284.6,485.3,281.1,482L281.1,482z M0,449.7
			c0-0.5,5.3-6.2,11.8-12.7l11.8-11.9l-2-2.4c-1.1-1.3-3.6-4-5.6-5.9l-3.5-3.5l-6,6.1c-3.3,3.4-6.1,6.1-6.2,6.1S0,425.1,0,424.7
			c0-0.9,11.9-13.2,12.8-13.2c0.8,0,12.7,12.7,12.7,13.6c0,0.7-24.5,25.4-25.1,25.4C0.2,450.5,0,450.1,0,449.7z M37.1,413.4
			l-24.6-24.6l-5.9,5.8c-3.2,3.2-6,5.8-6.2,5.8S0,400.1,0,399.7c0-0.9,11.4-12.7,12.2-12.7c0.3,0,1.5,0.9,2.5,2s12.3,12.2,24.9,24.6
			l22.9,22.5l5.5-5.5c3-3,5.5-5.7,5.5-6c0-0.3-11-11.3-24.4-24.5S24.6,376,24.3,375.6c-0.3-0.5,1.3-2.4,6-7.1
			c3.5-3.5,6.7-6.4,7.1-6.4s11.6,10.9,25.1,24.2s24.6,24.2,24.9,24.2c0.3,0,5.4-5,11.5-11c6-6.1,11.6-11.4,12.4-11.8l1.4-0.8
			l13.6,13.4c7.5,7.4,18.7,18.5,24.9,24.7l11.4,11.2l5.5-5.5c3-3,5.5-5.7,5.5-6c0-0.3-11-11.3-24.4-24.5
			c-13.4-13.2-24.6-24.3-24.8-24.7c-0.3-0.5,1.3-2.4,6-7.1c3.5-3.5,6.7-6.4,7.1-6.4s11.8,11.1,25.4,24.6l24.7,24.6l12.1-12.1
			c6.7-6.7,12.3-12.1,12.6-12.1s1.4,0.9,2.5,2c1.1,1.1,12.3,12.2,24.9,24.6l22.9,22.5l5.5-5.5c3-3,5.5-5.7,5.5-6
			c0-0.3-11-11.3-24.4-24.5c-13.4-13.2-24.6-24.3-24.8-24.7c-0.3-0.5,1.3-2.4,6-7.1c3.5-3.5,6.7-6.4,7.1-6.4s11.8,11.1,25.4,24.6
			l24.7,24.6l6.1-6c3.4-3.4,6.2-5.7,6.3-5.3c0.1,0.3-0.2,1.2-0.8,2c-1.6,2.2-10.9,11.1-11.6,11.1c-0.3,0-11.7-11.1-25.3-24.6
			l-24.7-24.6l-2.4,2c-4.3,3.7-8.8,8.5-8.6,9.3c0.1,0.4,11.1,11.5,24.4,24.7c13.3,13.1,24.3,24.2,24.4,24.5
			c0.2,0.8-11.9,13.7-12.9,13.7c-0.4,0-11.7-10.9-25.1-24.2c-13.4-13.3-24.7-24.2-25-24.2c-0.4,0-6,5.3-12.4,11.8S188,413,187.6,413
			c-0.4,0-11.8-11.1-25.4-24.6l-24.7-24.6l-2.4,2c-4.3,3.7-8.8,8.5-8.6,9.3c0.1,0.4,11.1,11.5,24.4,24.7
			c13.3,13.1,24.3,24.2,24.4,24.5c0.2,0.8-11.9,13.7-12.9,13.7c-0.4,0-10.2-9.5-21.8-21c-11.5-11.6-22.7-22.6-24.9-24.5l-3.9-3.5
			l-12,11.7c-6.6,6.4-12.4,11.7-12.8,11.8c-0.5,0.1-10.5-9.5-25.2-24.2l-24.5-24.4l-2.4,2c-4.3,3.7-8.8,8.5-8.6,9.3
			c0.1,0.4,11.1,11.5,24.4,24.7s24.3,24.1,24.4,24.5c0.2,0.8-11.9,13.7-12.9,13.6C62.1,438,50.7,426.9,37.1,413.4L37.1,413.4z
			 M81.1,381.8c-3.6-3.6-6.6-6.7-6.6-7c0-0.3,10.9-11.7,24.2-25.2s24.2-24.9,24.2-25.2c0-0.7-10.1-10.8-10.8-10.8
			c-0.3,0-11.3,11-24.6,24.5s-24.4,24.5-24.7,24.5c-0.3,0-5.5-4.8-11.6-10.6S39.6,340.7,38.9,340l-1.4-1.2l-18.5,18.5
			C8.6,367.5,0.3,375.5,0.2,375.1c-0.1-0.3,0.2-1.2,0.8-2c1.9-2.6,35.9-36.1,36.6-36.1c0.4,0,6.2,5.3,13,11.7
			c7.3,7,12.5,11.6,12.8,11.4c0.3-0.2,11.2-11.1,24.2-24.3s24-24.1,24.4-24.1c0.5-0.1,3.3,2.3,7.3,6.4l6.5,6.5L115,335.4
			c-5.9,6-17,17.2-24.7,25l-14,14.1l5.5,5.5c3,3,5.7,5.4,6.1,5.4c0.3-0.1,11.3-11,24.4-24.4c13.8-14,24.2-24.2,24.7-24.2
			c0.5,0,6.6,5.5,13.5,12.2l12.6,12.2l5.1-5.2c2.8-2.9,13.7-13.9,24.1-24.5c10.4-10.6,19.3-19.4,19.6-19.7c0.5-0.3,2.4,1.3,7.1,6
			c3.5,3.5,6.4,6.7,6.4,6.9s-10.9,11.6-24.3,25.2s-24.2,24.9-24.1,25.3c0.1,0.3,2.6,3,5.6,5.8l5.4,5.2l7.8-8
			c25.3-25.7,40.9-41.2,41.6-41.2c0.4,0,6.2,5.5,12.9,12.1l12.1,12.1l18.4-18.4c10.1-10.1,18.6-18.4,18.8-18.4
			c1.6,0-2.1,4.1-18,20.1c-10.1,10.1-18.7,18.4-19.1,18.4s-6.2-5.4-12.8-12c-6.6-6.6-12.3-11.9-12.6-11.9
			c-0.3,0.1-11.4,11-24.5,24.4c-13.1,13.3-24.2,24.3-24.6,24.4c-0.4,0.1-3.6-2.7-7.3-6.4l-6.5-6.5l7.7-7.9
			c4.3-4.3,15.3-15.5,24.6-24.9s16.9-17.3,16.9-17.5c0-0.8-10.3-10.7-11.1-10.7c-0.4,0-3.8,3.2-7.6,7.1
			c-20.2,20.6-41.4,41.9-41.9,41.9c-0.3,0-6.1-5.5-12.8-12.2s-12.5-12.3-12.8-12.3c-0.3,0-11.5,11.2-25,24.9l-24.6,24.9L81.1,381.8z
			 M281,381.8c-3.6-3.5-6.5-6.7-6.5-7c0-0.6,23.3-24.1,24.6-24.9c0.7-0.4,0.9-0.3,0.9,0.4c0,0.5-5.2,6.1-11.5,12.4
			c-6.3,6.4-11.5,11.8-11.5,12.1c0,0.6,9.7,10.3,10.6,10.6c0.3,0.1,3.1-2.4,6.3-5.5c3.7-3.7,5.9-5.4,6-5c0.1,0.4-2.4,3.3-6.1,7
			l-6.3,6.3L281,381.8L281,381.8z M0,349.7c0-0.5,5.3-6.2,11.9-12.8L23.7,325l-5.6-5.6l-5.6-5.6l-5.9,5.9c-3.3,3.2-6.1,5.9-6.3,5.9
			S0,325.1,0,324.7c0-1,11.4-12.7,12.5-12.7c1,0,13,12,13,13c0,0.7-24.4,25.5-25.1,25.5C0.2,350.5,0,350.1,0,349.7z M43.1,319.4
			c-10.2-10.3-18.6-18.8-18.6-19c0-1.6,4.1,2,19.9,17.8l18.2,18.1l5.6-5.6l5.6-5.6l-12.1-12.2c-6.7-6.7-12.1-12.3-12.1-12.5
			c0-0.2,0.4-0.4,0.8-0.4c1.1,0,25.2,23.9,25.2,25c0,1-12,13-13,13C62.1,338,53.4,329.6,43.1,319.4z M143.1,319.4
			c-10.2-10.3-18.6-18.8-18.6-19c0-1.6,4.1,2,19.9,17.8l18.2,18.1l5.6-5.6l5.6-5.6l-12.2-12.3c-6.8-6.9-12-12.4-11.6-12.5
			c0.3-0.1,1.2,0.2,2,0.8c2.4,1.8,23.6,23.3,23.6,24.1c0,1-12,13-13,13C162.1,338,153.4,329.6,143.1,319.4L143.1,319.4z
			 M243.1,319.4c-10.2-10.3-18.6-18.8-18.6-19c0-1.6,4.1,2,19.8,17.8l18.2,18.1l5.5-5.5c3-3,5.5-5.7,5.5-6.1c0-0.3-5.3-5.7-11.7-12
			s-11.8-11.7-12-12c-0.1-0.4,0.1-0.7,0.5-0.7c0.8,0,24.8,23.3,25.1,24.3c0.2,0.8-11.9,13.7-12.9,13.7
			C262.1,338,253.4,329.6,243.1,319.4L243.1,319.4z M81.1,307.4c-6.1-6-7.2-7.4-5.9-7.4c0.4,0,3.4,2.5,6.5,5.6l5.7,5.6l5.7-5.6
			c3.1-3.1,6.1-5.6,6.5-5.6c0.6,0,0.7,0.2,0.3,0.9c-0.8,1.4-11.9,12.1-12.6,12.1C87.1,313,84.3,310.5,81.1,307.4z M180.6,306.8
			c-3.4-3.4-6.1-6.3-6.1-6.5c0-1.3,2.4,0.4,7.3,5.3l5.7,5.6l5.7-5.6c4.9-4.8,7.3-6.5,7.3-5.3c0,0.7-12.3,12.7-13,12.7
			C187.1,313,184,310.2,180.6,306.8z M280.6,306.8c-3.4-3.4-6.1-6.3-6.1-6.5c0-1.3,2.4,0.4,7.3,5.3l5.7,5.6l5.7-5.6
			c5.4-5.3,6.8-6.3,6.8-5c0,0.9-11.6,12.5-12.5,12.5C287.1,313,284,310.2,280.6,306.8L280.6,306.8z"/>
	</g>
	<g id="g83712" transform="translate(300,0)">
		<path id="path83714" inkscape:connector-curvature="0" class="st0" d="M0,599.4c0-0.8,11.6-12.4,12.5-12.4
			c0.7,0,11.8,10.6,12.6,12.1c0.4,0.7,0.3,0.9-0.3,0.9c-0.4,0-3.4-2.5-6.5-5.6l-5.7-5.6l-5.7,5.6C1.4,599.7,0,600.7,0,599.4z
			 M36.7,587.9c-6.7-6.7-12.2-12.5-12.2-12.9c0-1,12-13,13-13c0.7,0,38,36.9,38,37.6c0,1.6-4.1-2-19.9-17.8l-18.2-18.1l-5.6,5.6
			l-5.6,5.6l12.1,12.2c6.7,6.7,12.1,12.3,12.1,12.5C50.5,601.2,47.2,598.4,36.7,587.9z M100,599.7c0-0.5,6.9-7.5,10.1-10.3l2.9-2.5
			l5.8,5.7c6.2,6.1,7.3,7.4,5.9,7.4c-0.4,0-3.2-2.4-6.2-5.2s-5.6-5.2-5.8-5.2c-0.2,0-2.8,2.4-5.8,5.2
			C102.3,599.3,100,600.9,100,599.7L100,599.7z M136.9,588.1c-6.6-6.5-11.9-12.2-11.9-12.6c0-0.9,11.9-13.6,12.7-13.6
			c0.6,0,37.8,37,37.8,37.6c0,1.6-4.1-2-19.7-17.6l-18-18l-4.3,4.4c-2.3,2.4-4.8,5-5.5,5.8l-1.2,1.4l11.8,11.9
			c6.5,6.5,11.8,12,11.8,12.2C150.5,601.2,147.2,598.4,136.9,588.1L136.9,588.1z M199.9,599.1c0.7-1.2,11.8-12.1,12.4-12.1
			c0.3,0,3.4,2.9,6.9,6.5c8,8,7.3,9-0.9,1.2c-3.1-2.9-5.8-5.2-6-5.2c-0.3,0-2.9,2.4-5.9,5.2c-3,2.9-5.7,5.2-6.2,5.2
			C199.7,600,199.6,599.8,199.9,599.1z M236.8,588.1c-6.6-6.5-12.3-12.2-12.5-12.6c-0.3-0.5,1.3-2.5,6-7.1c3.5-3.5,6.7-6.4,7-6.4
			c0.7,0,37,35.7,37.7,37.1c0.4,0.8,0.3,0.9-0.4,0.9c-0.5,0-9-8.1-19-18.1l-18.1-18.1l-1.4,1.2c-4.2,3.7-9.6,9.3-9.6,10.1
			c0,0.5,5.2,5.9,11.5,12c11.8,11.4,13.2,12.9,11.7,12.9C249.2,600,243.4,594.7,236.8,588.1L236.8,588.1z M81.1,581.8
			c-3.6-3.6-6.6-6.7-6.6-7c0-0.3,10.9-11.7,24.2-25.2s24.2-24.9,24.2-25.2c0-0.7-10.1-10.8-10.8-10.8c-0.3,0-11.3,11-24.6,24.5
			s-24.4,24.5-24.7,24.5c-0.3,0-5.5-4.8-11.6-10.6S39.6,540.7,38.9,540l-1.4-1.2l-18.4,18.4C9,567.2,0.6,575.5,0.4,575.5
			c-1.6,0,2.1-4.1,18-20.1C28.5,545.3,37.1,537,37.5,537c0.4,0,6.3,5.3,13,11.7c7.3,7,12.5,11.6,12.8,11.4
			c0.3-0.2,11.2-11.1,24.2-24.3s24-24.1,24.4-24.1c0.5-0.1,3.3,2.3,7.3,6.4l6.5,6.5L115,535.4c-5.9,6-17,17.2-24.7,25l-14,14.1
			l5.5,5.5c3,3,5.7,5.4,6.1,5.4c0.3-0.1,11.3-11,24.4-24.4s24.2-24.3,24.6-24.4c0.5-0.1,5.7,4.8,13.2,12.2
			c6.8,6.8,12.6,12.3,12.9,12.2s11.3-11.1,24.4-24.4c13.1-13.3,24.2-24.4,24.6-24.7c0.5-0.3,2.4,1.2,7.2,6c3.5,3.5,6.4,6.7,6.4,6.9
			s-10.9,11.6-24.3,25.2s-24.2,24.9-24.1,25.3c0.1,0.3,2.6,3,5.6,5.8l5.4,5.2l7.8-8c24.7-25.2,40.9-41.2,41.5-41.2
			c0.4,0,4.2,3.3,8.4,7.4c4.2,4.1,9.9,9.4,12.5,11.8l4.7,4.4l18.3-18.2c10.1-10.1,18.4-17.9,18.5-17.6c0.1,0.3-0.2,1.3-0.8,2
			c-1.4,2-35.5,35.6-36.1,35.6c-0.3,0-6-5.3-12.8-11.8c-6.7-6.5-12.6-11.7-12.9-11.6c-0.4,0.1-11.4,11.1-24.5,24.4
			c-13.1,13.3-24.2,24.3-24.6,24.4c-0.4,0.1-3.6-2.7-7.3-6.4l-6.5-6.5l7.7-7.9c4.3-4.3,15.3-15.5,24.6-24.9
			c9.3-9.4,16.9-17.3,16.9-17.5c0-0.9-10.5-10.8-11.2-10.6c-0.4,0.1-11.4,11-24.4,24.2c-13,13.2-24,24.3-24.6,24.7
			c-0.9,0.6-1.9-0.3-13.7-12L137,538.2l-24.7,25l-24.7,25L81.1,581.8z M280.6,581.6c-3.3-3.5-6.1-6.6-6.1-6.9c0-0.7,25-25.4,25.3-25
			c0.8,0.8-1.5,3.4-11.7,13.2c-5.9,5.7-10.9,10.7-11.2,11.3c-0.5,0.9,0.2,1.7,5,6.6l5.5,5.6l5.9-5.9c3.3-3.2,6.1-5.9,6.3-5.9
			s0.3,0.4,0.3,0.8c0,1.1-11.5,12.7-12.5,12.7C287,588,283.9,585.1,280.6,581.6z M0,549.7c0-0.5,5.3-6.2,11.9-12.8L23.7,525
			l-5.6-5.6l-5.6-5.6l-5.9,5.9c-3.3,3.2-6.1,5.9-6.3,5.9S0,525.1,0,524.7c0-1,11.4-12.7,12.5-12.7c1,0,13,12,13,13
			c0,0.7-24.4,25.5-25.1,25.5C0.2,550.5,0,550.1,0,549.7z M37.4,513.7c-13.4-13.3-24.6-24.2-25-24.2s-2.9,2.3-5.7,5
			C1.3,500,0,501,0,499.7c0-0.8,10.1-11.5,11.7-12.3c0.8-0.4,2.7,1.3,14.3,12.7c7.3,7.2,18.5,18.4,24.9,24.7l11.6,11.5l5.5-5.5
			c3-3,5.5-5.7,5.5-6c0-0.3-11-11.3-24.4-24.5S24.6,476,24.3,475.6c-0.3-0.5,1.3-2.4,6-7.1c3.5-3.5,6.7-6.4,7.1-6.4
			c0.4,0,11.8,11.1,25.4,24.6l24.7,24.6l12.1-12.1c6.7-6.7,12.4-12.1,12.6-12.1c0.3,0,1.4,0.9,2.5,2s12.3,12.2,24.9,24.6l22.9,22.5
			l5.5-5.5c3-3,5.5-5.7,5.5-6c0-0.3-11-11.3-24.4-24.5c-13.4-13.2-24.6-24.3-24.8-24.7c-0.3-0.5,1.3-2.4,6-7.1
			c3.5-3.5,6.7-6.4,7.1-6.4s11.8,11.1,25.4,24.6l24.7,24.6l12.1-12.1c6.7-6.7,12.3-12.1,12.6-12.1s1.4,0.9,2.5,2
			c1.1,1.1,12.3,12.2,24.9,24.6l22.9,22.5l5.5-5.5c3-3,5.5-5.7,5.5-6c0-0.3-11-11.3-24.4-24.5c-13.4-13.2-24.6-24.3-24.8-24.7
			c-0.3-0.5,1.3-2.4,6-7.1c3.5-3.5,6.7-6.4,7.1-6.4s11.7,10.9,25.2,24.2s24.8,24.2,25.1,24.2s2.8-2.3,5.6-5c5.5-5.5,6.7-6.5,6.7-5.2
			c0,1-11.5,12.8-12.3,12.6c-0.3-0.1-11.8-11.1-25.4-24.6l-24.8-24.4l-2.4,2c-4.3,3.6-8.7,8.4-8.6,9.3c0.1,0.4,11.1,11.5,24.4,24.7
			c13.3,13.1,24.3,24.2,24.4,24.5c0.2,0.8-11.9,13.7-12.9,13.7c-0.4,0-11.8-11.1-25.4-24.6l-24.7-24.6l-12.1,12.1
			c-6.7,6.6-12.4,12.1-12.8,12.1s-11.8-11.1-25.3-24.6l-24.7-24.6l-2.4,2c-4.3,3.7-8.8,8.5-8.6,9.3c0.1,0.4,11.1,11.5,24.4,24.7
			c13.3,13.1,24.3,24.2,24.4,24.5c0.2,0.8-11.9,13.7-12.9,13.7c-0.4,0-11.7-10.9-25.1-24.2c-13.4-13.3-24.7-24.2-25-24.2
			c-0.4,0-6,5.3-12.4,11.8S87.9,513,87.6,513c-0.4,0-11.7-11-25.1-24.4s-24.6-24.4-24.9-24.5c-0.2-0.1-2.8,2.1-5.8,5
			c-3.6,3.4-5.3,5.4-5.2,6c0.1,0.5,11.1,11.6,24.4,24.8C64.3,513,75.3,524,75.4,524.3c0.2,0.8-11.9,13.7-12.9,13.6
			C62.1,538,50.8,527.1,37.4,513.7L37.4,513.7z M80.8,481.5l-6.5-6.5l7.7-7.9c4.3-4.3,15.3-15.5,24.6-24.9
			c9.3-9.4,16.9-17.3,16.9-17.5c0-0.8-10.3-10.7-11.1-10.7c-0.4,0-3.8,3.2-7.6,7.1C84.4,441.9,63.3,463,62.8,463
			c-0.3,0-6.1-5.6-13-12.4l-12.4-12.4L19,456.9C8.9,467.1,0.4,475.5,0.3,475.5c-1.4,0,2.2-4.1,18-20.1
			c10.1-10.2,18.6-18.7,19.1-18.8c0.5-0.1,5.4,4.4,13.2,12.2L63,461.2l5.2-5.2c2.9-2.9,13.7-13.9,24.1-24.5s19.2-19.4,19.6-19.7
			c0.5-0.3,2.4,1.3,7.1,6c3.5,3.5,6.4,6.7,6.4,6.9s-10.9,11.6-24.3,25.2S77,474.8,77.1,475.2c0.1,0.3,2.6,3,5.6,5.8l5.4,5.2l7.8-8
			c25.4-25.9,40.9-41.2,41.6-41.2c0.4,0,6.3,5.3,13,11.7c7.3,7,12.5,11.6,12.8,11.4c0.3-0.2,11.2-11.1,24.2-24.3
			c13-13.2,24-24.1,24.4-24.1c0.5-0.1,3.3,2.3,7.3,6.4l6.5,6.5L215,435.4c-5.9,6-17,17.2-24.7,25l-14,14.1l5.5,5.5
			c3,3,5.7,5.4,6.1,5.4c0.3-0.1,11.3-11,24.4-24.4c14.6-14.9,24.3-24.3,24.9-24.4c0.8-0.1,3.9,2.7,13.1,11.9
			c6.6,6.6,12.2,12,12.5,12c0.3,0,8.4-7.9,18-17.5s17.9-17.8,18.4-18c0.7-0.4,0.9-0.3,0.9,0.4c0,0.8-34.9,36.3-36.7,37.3
			c-0.8,0.4-2.6-1.2-13.3-11.8c-6.8-6.8-12.6-12.3-12.8-12.3c-0.3,0-11.5,11.2-25.1,24.9l-24.6,24.9l-6.6-6.5
			c-3.6-3.6-6.6-6.7-6.6-7c0-0.3,10.9-11.7,24.2-25.2s24.2-24.9,24.2-25.2c0-0.7-10.1-10.8-10.8-10.8c-0.3,0-11.3,11-24.6,24.5
			c-13.3,13.5-24.4,24.5-24.6,24.5s-6-5.3-12.8-11.8c-6.7-6.5-12.6-11.7-12.9-11.6c-0.4,0.1-11.4,11.1-24.5,24.4
			S88.5,487.8,88,487.9C87.6,488,84.5,485.2,80.8,481.5z M281.1,482c-3.5-3.3-6.4-6.4-6.5-6.8c-0.2-0.7,22.6-24.1,24.6-25.2
			c0.7-0.4,0.9-0.3,0.9,0.4c0,0.5-5.3,6.2-11.9,12.8l-11.9,12l5.5,5.2c3,2.9,5.7,5.2,6,5.2c0.3,0,2.8-2.2,5.5-5
			c5.5-5.5,6.7-6.5,6.7-5.2c0,0.8-11.3,12.7-12.1,12.7C287.7,488,284.6,485.3,281.1,482L281.1,482z M0,449.7
			c0-0.5,5.3-6.2,11.8-12.7l11.8-11.9l-2-2.4c-1.1-1.3-3.6-4-5.6-5.9l-3.5-3.5l-6,6.1c-3.3,3.4-6.1,6.1-6.2,6.1S0,425.1,0,424.7
			c0-0.9,11.9-13.2,12.8-13.2c0.8,0,12.7,12.7,12.7,13.6c0,0.7-24.5,25.4-25.1,25.4C0.2,450.5,0,450.1,0,449.7z M37.1,413.4
			l-24.6-24.6l-5.9,5.8c-3.2,3.2-6,5.8-6.2,5.8S0,400.1,0,399.7c0-0.9,11.4-12.7,12.2-12.7c0.3,0,1.5,0.9,2.5,2s12.3,12.2,24.9,24.6
			l22.9,22.5l5.5-5.5c3-3,5.5-5.7,5.5-6c0-0.3-11-11.3-24.4-24.5S24.6,376,24.3,375.6c-0.3-0.5,1.3-2.4,6-7.1
			c3.5-3.5,6.7-6.4,7.1-6.4s11.6,10.9,25.1,24.2s24.6,24.2,24.9,24.2c0.3,0,5.4-5,11.5-11c6-6.1,11.6-11.4,12.4-11.8l1.4-0.8
			l13.6,13.4c7.5,7.4,18.7,18.5,24.9,24.7l11.4,11.2l5.5-5.5c3-3,5.5-5.7,5.5-6c0-0.3-11-11.3-24.4-24.5
			c-13.4-13.2-24.6-24.3-24.8-24.7c-0.3-0.5,1.3-2.4,6-7.1c3.5-3.5,6.7-6.4,7.1-6.4s11.8,11.1,25.4,24.6l24.7,24.6l12.1-12.1
			c6.7-6.7,12.3-12.1,12.6-12.1s1.4,0.9,2.5,2c1.1,1.1,12.3,12.2,24.9,24.6l22.9,22.5l5.5-5.5c3-3,5.5-5.7,5.5-6
			c0-0.3-11-11.3-24.4-24.5c-13.4-13.2-24.6-24.3-24.8-24.7c-0.3-0.5,1.3-2.4,6-7.1c3.5-3.5,6.7-6.4,7.1-6.4s11.8,11.1,25.4,24.6
			l24.7,24.6l6.1-6c3.4-3.4,6.2-5.7,6.3-5.3c0.1,0.3-0.2,1.2-0.8,2c-1.6,2.2-10.9,11.1-11.6,11.1c-0.3,0-11.7-11.1-25.3-24.6
			l-24.7-24.6l-2.4,2c-4.3,3.7-8.8,8.5-8.6,9.3c0.1,0.4,11.1,11.5,24.4,24.7c13.3,13.1,24.3,24.2,24.4,24.5
			c0.2,0.8-11.9,13.7-12.9,13.7c-0.4,0-11.7-10.9-25.1-24.2c-13.4-13.3-24.7-24.2-25-24.2c-0.4,0-6,5.3-12.4,11.8S188,413,187.6,413
			c-0.4,0-11.8-11.1-25.4-24.6l-24.7-24.6l-2.4,2c-4.3,3.7-8.8,8.5-8.6,9.3c0.1,0.4,11.1,11.5,24.4,24.7
			c13.3,13.1,24.3,24.2,24.4,24.5c0.2,0.8-11.9,13.7-12.9,13.7c-0.4,0-10.2-9.5-21.8-21c-11.5-11.6-22.7-22.6-24.9-24.5l-3.9-3.5
			l-12,11.7c-6.6,6.4-12.4,11.7-12.8,11.8c-0.5,0.1-10.5-9.5-25.2-24.2l-24.5-24.4l-2.4,2c-4.3,3.7-8.8,8.5-8.6,9.3
			c0.1,0.4,11.1,11.5,24.4,24.7s24.3,24.1,24.4,24.5c0.2,0.8-11.9,13.7-12.9,13.6C62.1,438,50.7,426.9,37.1,413.4L37.1,413.4z
			 M81.1,381.8c-3.6-3.6-6.6-6.7-6.6-7c0-0.3,10.9-11.7,24.2-25.2s24.2-24.9,24.2-25.2c0-0.7-10.1-10.8-10.8-10.8
			c-0.3,0-11.3,11-24.6,24.5s-24.4,24.5-24.7,24.5c-0.3,0-5.5-4.8-11.6-10.6S39.6,340.7,38.9,340l-1.4-1.2l-18.5,18.5
			C8.6,367.5,0.3,375.5,0.2,375.1c-0.1-0.3,0.2-1.2,0.8-2c1.9-2.6,35.9-36.1,36.6-36.1c0.4,0,6.2,5.3,13,11.7
			c7.3,7,12.5,11.6,12.8,11.4c0.3-0.2,11.2-11.1,24.2-24.3s24-24.1,24.4-24.1c0.5-0.1,3.3,2.3,7.3,6.4l6.5,6.5L115,335.4
			c-5.9,6-17,17.2-24.7,25l-14,14.1l5.5,5.5c3,3,5.7,5.4,6.1,5.4c0.3-0.1,11.3-11,24.4-24.4c13.8-14,24.2-24.2,24.7-24.2
			c0.5,0,6.6,5.5,13.5,12.2l12.6,12.2l5.1-5.2c2.8-2.9,13.7-13.9,24.1-24.5c10.4-10.6,19.3-19.4,19.6-19.7c0.5-0.3,2.4,1.3,7.1,6
			c3.5,3.5,6.4,6.7,6.4,6.9s-10.9,11.6-24.3,25.2s-24.2,24.9-24.1,25.3c0.1,0.3,2.6,3,5.6,5.8l5.4,5.2l7.8-8
			c25.3-25.7,40.9-41.2,41.6-41.2c0.4,0,6.2,5.5,12.9,12.1l12.1,12.1l18.4-18.4c10.1-10.1,18.6-18.4,18.8-18.4
			c1.6,0-2.1,4.1-18,20.1c-10.1,10.1-18.7,18.4-19.1,18.4s-6.2-5.4-12.8-12c-6.6-6.6-12.3-11.9-12.6-11.9
			c-0.3,0.1-11.4,11-24.5,24.4c-13.1,13.3-24.2,24.3-24.6,24.4c-0.4,0.1-3.6-2.7-7.3-6.4l-6.5-6.5l7.7-7.9
			c4.3-4.3,15.3-15.5,24.6-24.9s16.9-17.3,16.9-17.5c0-0.8-10.3-10.7-11.1-10.7c-0.4,0-3.8,3.2-7.6,7.1
			c-20.2,20.6-41.4,41.9-41.9,41.9c-0.3,0-6.1-5.5-12.8-12.2s-12.5-12.3-12.8-12.3c-0.3,0-11.5,11.2-25,24.9l-24.6,24.9L81.1,381.8z
			 M281,381.8c-3.6-3.5-6.5-6.7-6.5-7c0-0.6,23.3-24.1,24.6-24.9c0.7-0.4,0.9-0.3,0.9,0.4c0,0.5-5.2,6.1-11.5,12.4
			c-6.3,6.4-11.5,11.8-11.5,12.1c0,0.6,9.7,10.3,10.6,10.6c0.3,0.1,3.1-2.4,6.3-5.5c3.7-3.7,5.9-5.4,6-5c0.1,0.4-2.4,3.3-6.1,7
			l-6.3,6.3L281,381.8L281,381.8z M0,349.7c0-0.5,5.3-6.2,11.9-12.8L23.7,325l-5.6-5.6l-5.6-5.6l-5.9,5.9c-3.3,3.2-6.1,5.9-6.3,5.9
			S0,325.1,0,324.7c0-1,11.4-12.7,12.5-12.7c1,0,13,12,13,13c0,0.7-24.4,25.5-25.1,25.5C0.2,350.5,0,350.1,0,349.7z M43.1,319.4
			c-10.2-10.3-18.6-18.8-18.6-19c0-1.6,4.1,2,19.9,17.8l18.2,18.1l5.6-5.6l5.6-5.6l-12.1-12.2c-6.7-6.7-12.1-12.3-12.1-12.5
			c0-0.2,0.4-0.4,0.8-0.4c1.1,0,25.2,23.9,25.2,25c0,1-12,13-13,13C62.1,338,53.4,329.6,43.1,319.4z M143.1,319.4
			c-10.2-10.3-18.6-18.8-18.6-19c0-1.6,4.1,2,19.9,17.8l18.2,18.1l5.6-5.6l5.6-5.6l-12.2-12.3c-6.8-6.9-12-12.4-11.6-12.5
			c0.3-0.1,1.2,0.2,2,0.8c2.4,1.8,23.6,23.3,23.6,24.1c0,1-12,13-13,13C162.1,338,153.4,329.6,143.1,319.4L143.1,319.4z
			 M243.1,319.4c-10.2-10.3-18.6-18.8-18.6-19c0-1.6,4.1,2,19.8,17.8l18.2,18.1l5.5-5.5c3-3,5.5-5.7,5.5-6.1c0-0.3-5.3-5.7-11.7-12
			s-11.8-11.7-12-12c-0.1-0.4,0.1-0.7,0.5-0.7c0.8,0,24.8,23.3,25.1,24.3c0.2,0.8-11.9,13.7-12.9,13.7
			C262.1,338,253.4,329.6,243.1,319.4L243.1,319.4z M81.1,307.4c-6.1-6-7.2-7.4-5.9-7.4c0.4,0,3.4,2.5,6.5,5.6l5.7,5.6l5.7-5.6
			c3.1-3.1,6.1-5.6,6.5-5.6c0.6,0,0.7,0.2,0.3,0.9c-0.8,1.4-11.9,12.1-12.6,12.1C87.1,313,84.3,310.5,81.1,307.4z M180.6,306.8
			c-3.4-3.4-6.1-6.3-6.1-6.5c0-1.3,2.4,0.4,7.3,5.3l5.7,5.6l5.7-5.6c4.9-4.8,7.3-6.5,7.3-5.3c0,0.7-12.3,12.7-13,12.7
			C187.1,313,184,310.2,180.6,306.8z M280.6,306.8c-3.4-3.4-6.1-6.3-6.1-6.5c0-1.3,2.4,0.4,7.3,5.3l5.7,5.6l5.7-5.6
			c5.4-5.3,6.8-6.3,6.8-5c0,0.9-11.6,12.5-12.5,12.5C287.1,313,284,310.2,280.6,306.8L280.6,306.8z"/>
	</g>
</g>
</svg>
